<?xml version="1.0" encoding="UTF-8" standalone="no"?>
<svg
   xmlns:dc="http://purl.org/dc/elements/1.1/"
   xmlns:cc="http://creativecommons.org/ns#"
   xmlns:rdf="http://www.w3.org/1999/02/22-rdf-syntax-ns#"
   xmlns:svg="http://www.w3.org/2000/svg"
   xmlns="http://www.w3.org/2000/svg"
   viewBox="0 0 321.15222 321.15076"
   height="321.15076"
   width="321.15222"
   xml:space="preserve"
   id="svg2"
   version="1.1"><metadata
     id="metadata8"><rdf:RDF><cc:Work
         rdf:about=""><dc:format>image/svg+xml</dc:format><dc:type
           rdf:resource="http://purl.org/dc/dcmitype/StillImage" /><dc:title></dc:title></cc:Work></rdf:RDF></metadata><defs
     id="defs6"><clipPath
       id="clipPath22"
       clipPathUnits="userSpaceOnUse"><path
         id="path20"
         d="M 2576.41,2251.26 C 2204.57,2802.67 1456.16,2948.24 904.777,2576.42 353.367,2204.6 207.773,1456.18 579.602,904.785 951.477,353.293 1699.87,207.805 2251.27,579.621 c 551.4,371.805 697,1120.149 325.14,1671.639 M 2217.61,629.52 C 1693.78,276.301 982.813,414.543 629.531,938.445 276.289,1462.3 414.582,2173.27 938.43,2526.52 c 523.83,353.22 1234.82,214.91 1588.05,-308.93 353.27,-523.9 214.96,-1234.824 -308.87,-1588.07" /></clipPath><radialGradient
       id="radialGradient38"
       spreadMethod="pad"
       gradientTransform="matrix(2415.07,1628.59,1628.59,-2415.07,916.953,2339.48)"
       gradientUnits="userSpaceOnUse"
       r="0.81460601"
       cy="0"
       cx="0"
       fy="0"
       fx="0"><stop
         id="stop24"
         offset="0"
         style="stop-opacity:1;stop-color:#ffffff" /><stop
         id="stop26"
         offset="0.27084554"
         style="stop-opacity:1;stop-color:#7b7979" /><stop
         id="stop28"
         offset="0.492752"
         style="stop-opacity:1;stop-color:#7b7979" /><stop
         id="stop30"
         offset="0.50754518"
         style="stop-opacity:1;stop-color:#7b7979" /><stop
         id="stop32"
         offset="0.651672"
         style="stop-opacity:1;stop-color:#7b7979" /><stop
         id="stop34"
         offset="0.81520571"
         style="stop-opacity:1;stop-color:#7b7979" /><stop
         id="stop36"
         offset="1"
         style="stop-opacity:1;stop-color:#ffffff" /></radialGradient><clipPath
       id="clipPath48"
       clipPathUnits="userSpaceOnUse"><path
         id="path46"
         d="m 849.922,1660.05 c 0,368.91 299.058,667.98 667.978,667.98 368.89,0 667.95,-299.07 667.95,-667.98 0,-368.95 -299.06,-668.046 -667.95,-668.046 -368.92,0 -667.978,299.096 -667.978,668.046" /></clipPath><radialGradient
       id="radialGradient58"
       spreadMethod="pad"
       gradientTransform="matrix(1056.09,0,0,-1056.09,1217.04,2028.49)"
       gradientUnits="userSpaceOnUse"
       r="1"
       cy="0"
       cx="0"
       fy="0"
       fx="0"><stop
         id="stop50"
         offset="0"
         style="stop-opacity:1;stop-color:#f4f4f4" /><stop
         id="stop52"
         offset="0.129211"
         style="stop-opacity:1;stop-color:#c2c1c1" /><stop
         id="stop54"
         offset="0.59289732"
         style="stop-opacity:1;stop-color:#231f20" /><stop
         id="stop56"
         offset="1"
         style="stop-opacity:1;stop-color:#231f20" /></radialGradient><clipPath
       id="clipPath68"
       clipPathUnits="userSpaceOnUse"><path
         id="path66"
         d="m 1578.02,2175.1 c 314.75,0 572.62,-243.58 595.41,-552.53 h 89.3 c -22.97,358.2 -320.72,641.64 -684.71,641.64 -378.99,0 -686.196,-307.21 -686.196,-686.18 0,-241.28 124.546,-453.4 312.806,-575.76 l 34.82,83.86 c -156.14,107.73 -258.512,287.85 -258.512,491.9 0,329.76 267.312,597.07 597.082,597.07" /></clipPath><radialGradient
       id="radialGradient76"
       spreadMethod="pad"
       gradientTransform="matrix(28.708,1672.96,2188.78,491.516,1919.18,852.93)"
       gradientUnits="userSpaceOnUse"
       r="0.80192602"
       cy="0"
       cx="0"
       fy="0"
       fx="0"><stop
         id="stop70"
         offset="0"
         style="stop-opacity:1;stop-color:#a7a5a6" /><stop
         id="stop72"
         offset="0.29738275"
         style="stop-opacity:1;stop-color:#a7a5a6" /><stop
         id="stop74"
         offset="1"
         style="stop-opacity:1;stop-color:#231f20" /></radialGradient><clipPath
       id="clipPath106"
       clipPathUnits="userSpaceOnUse"><path
         id="path104"
         d="m 2630.23,1768.84 c -145.99,-17.17 -289.72,-14.18 -310.64,50.16 -20.89,64.31 93.63,151.23 221.84,223.14 0.03,0.02 0.09,0.06 0.11,0.07 -56.01,116.07 -132.36,220.52 -224.47,308.62 -107.99,-99.68 -226,-181.72 -280.72,-141.97 -54.73,39.77 -13.16,177.44 48.31,310.98 -110.71,59.67 -233.14,100.45 -362.96,117.89 -28.77,-144.14 -76.02,-279.94 -143.68,-279.94 -67.65,0 -114.91,135.81 -143.7,279.98 h -0.01 c -136.26,-18.31 -264.34,-62.31 -379.33,-126.9 0.02,-0.02 0.03,-0.04 0.05,-0.08 63.76,-132.43 107.74,-269.31 53.71,-310.03 -54.02,-40.69 -173.467,39.27 -283.181,137.05 -94.868,-93.93 -172.192,-205.59 -226.731,-329.48 0.031,-0.04 0.078,-0.05 0.117,-0.06 130.633,-67.42 248.164,-150.28 229.512,-215.31 -18.641,-65.04 -162.246,-73.03 -308.762,-60.96 -7.234,-50.29 -11.07,-101.7 -11.07,-153.97 0,-401.1 220.777,-750.596 547.445,-933.577 l 148.56,357.817 c -188.26,122.36 -312.833,334.47 -312.833,575.76 0,378.97 307.223,686.18 686.223,686.18 363.96,0 661.74,-283.44 684.68,-641.64 h 383.73 c -2.05,49.7 -7.62,98.53 -16.2,146.27" /></clipPath><radialGradient
       id="radialGradient114"
       spreadMethod="pad"
       gradientTransform="matrix(1261.58,209.373,195.713,-1192.16,1479.77,1742.21)"
       gradientUnits="userSpaceOnUse"
       r="0.980667"
       cy="0"
       cx="0"
       fy="0"
       fx="0"><stop
         id="stop108"
         offset="0"
         style="stop-opacity:1;stop-color:#ffffff" /><stop
         id="stop110"
         offset="0.33014482"
         style="stop-opacity:1;stop-color:#ffffff" /><stop
         id="stop112"
         offset="1"
         style="stop-opacity:1;stop-color:#4f4c4d" /></radialGradient><clipPath
       id="clipPath124"
       clipPathUnits="userSpaceOnUse"><path
         id="path122"
         d="m 1578.02,2357.79 c 67.66,0 114.91,135.8 143.68,279.94 -110.27,-279.94 -177.11,-279.94 -287.41,0.09 0,-0.02 0.02,-0.03 0.02,-0.05 h 0.01 c 28.79,-144.17 76.05,-279.98 143.7,-279.98" /></clipPath><radialGradient
       id="radialGradient132"
       spreadMethod="pad"
       gradientTransform="matrix(1057.18,0,0,-1057.18,1577.99,1597.84)"
       gradientUnits="userSpaceOnUse"
       r="1"
       cy="0"
       cx="0"
       fy="0"
       fx="0"><stop
         id="stop126"
         offset="0"
         style="stop-opacity:1;stop-color:#d3d2d2" /><stop
         id="stop128"
         offset="0.59021425"
         style="stop-opacity:1;stop-color:#4f4c4d" /><stop
         id="stop130"
         offset="1"
         style="stop-opacity:1;stop-color:#4f4c4d" /></radialGradient><clipPath
       id="clipPath142"
       clipPathUnits="userSpaceOnUse"><path
         id="path140"
         d="m 1108.74,2200.76 c 54.03,40.72 10.05,177.6 -53.71,310.03 80.39,-289.92 27.13,-330.24 -229.483,-172.99 0.039,-0.03 -0.051,0.04 0,0 0,0.01 0.012,0.01 0.012,0.01 109.714,-97.78 229.161,-177.74 283.181,-137.05" /></clipPath><radialGradient
       id="radialGradient150"
       spreadMethod="pad"
       gradientTransform="matrix(1056.68,0,0,-1056.68,1578.33,1598.72)"
       gradientUnits="userSpaceOnUse"
       r="1"
       cy="0"
       cx="0"
       fy="0"
       fx="0"><stop
         id="stop144"
         offset="0"
         style="stop-opacity:1;stop-color:#d3d2d2" /><stop
         id="stop146"
         offset="0.59021425"
         style="stop-opacity:1;stop-color:#4f4c4d" /><stop
         id="stop148"
         offset="1"
         style="stop-opacity:1;stop-color:#4f4c4d" /></radialGradient><clipPath
       id="clipPath160"
       clipPathUnits="userSpaceOnUse"><path
         id="path158"
         d="m 828.457,1792.96 c 18.652,65.03 -98.879,147.89 -229.512,215.31 238.703,-183.16 220.301,-247.43 -79.25,-276.27 146.516,-12.07 290.121,-4.08 308.762,60.96" /></clipPath><radialGradient
       id="radialGradient168"
       spreadMethod="pad"
       gradientTransform="matrix(1053.9,0,0,-1053.9,1575.1,1604.73)"
       gradientUnits="userSpaceOnUse"
       r="1"
       cy="0"
       cx="0"
       fy="0"
       fx="0"><stop
         id="stop162"
         offset="0"
         style="stop-opacity:1;stop-color:#d3d2d2" /><stop
         id="stop164"
         offset="0.59021425"
         style="stop-opacity:1;stop-color:#4f4c4d" /><stop
         id="stop166"
         offset="1"
         style="stop-opacity:1;stop-color:#4f4c4d" /></radialGradient><clipPath
       id="clipPath178"
       clipPathUnits="userSpaceOnUse"><path
         id="path176"
         d="m 2036.35,2208.86 c 54.72,-39.75 172.73,42.29 280.72,141.97 l 0.03,-0.01 c 0.03,0.03 0.03,0.06 0.06,0.07 -253.77,-161.66 -307.85,-122.38 -232.5,168.95 -61.47,-133.54 -103.04,-271.21 -48.31,-310.98" /></clipPath><radialGradient
       id="radialGradient186"
       spreadMethod="pad"
       gradientTransform="matrix(1057.38,0,0,-1057.38,1576.59,1600.15)"
       gradientUnits="userSpaceOnUse"
       r="1"
       cy="0"
       cx="0"
       fy="0"
       fx="0"><stop
         id="stop180"
         offset="0"
         style="stop-opacity:1;stop-color:#d3d2d2" /><stop
         id="stop182"
         offset="0.59021425"
         style="stop-opacity:1;stop-color:#4f4c4d" /><stop
         id="stop184"
         offset="1"
         style="stop-opacity:1;stop-color:#4f4c4d" /></radialGradient><clipPath
       id="clipPath196"
       clipPathUnits="userSpaceOnUse"><path
         id="path194"
         d="m 2319.59,1819 c 20.92,-64.34 164.65,-67.33 310.64,-50.16 -300.27,18.37 -320.95,81.93 -88.8,273.3 C 2413.22,1970.23 2298.7,1883.31 2319.59,1819" /></clipPath><radialGradient
       id="radialGradient204"
       spreadMethod="pad"
       gradientTransform="matrix(1051.3,0,0,-1051.3,1583.8,1602.49)"
       gradientUnits="userSpaceOnUse"
       r="1"
       cy="0"
       cx="0"
       fy="0"
       fx="0"><stop
         id="stop198"
         offset="0"
         style="stop-opacity:1;stop-color:#d3d2d2" /><stop
         id="stop200"
         offset="0.59021425"
         style="stop-opacity:1;stop-color:#4f4c4d" /><stop
         id="stop202"
         offset="1"
         style="stop-opacity:1;stop-color:#4f4c4d" /></radialGradient></defs><g
     transform="matrix(1.3333333,0,0,-1.3333333,-49.82616,370.97687)"
     id="g10"><g
       transform="scale(0.1)"
       id="g12"><path
         id="path14"
         style="fill:#231f20;fill-opacity:1;fill-rule:nonzero;stroke:none"
         d="M 2217.61,629.52 C 1693.78,276.301 982.813,414.543 629.531,938.445 276.289,1462.3 414.582,2173.27 938.43,2526.52 c 523.83,353.22 1234.82,214.91 1588.05,-308.93 353.27,-523.9 214.96,-1234.824 -308.87,-1588.07" /><g
         id="g16"><g
           clip-path="url(#clipPath22)"
           id="g18"><path
             id="path40"
             style="fill:url(#radialGradient38);fill-opacity:1;fill-rule:nonzero;stroke:none"
             d="M 2576.41,2251.26 C 2204.57,2802.67 1456.16,2948.24 904.777,2576.42 353.367,2204.6 207.773,1456.18 579.602,904.785 951.477,353.293 1699.87,207.805 2251.27,579.621 c 551.4,371.805 697,1120.149 325.14,1671.639 M 2217.61,629.52 C 1693.78,276.301 982.813,414.543 629.531,938.445 276.289,1462.3 414.582,2173.27 938.43,2526.52 c 523.83,353.22 1234.82,214.91 1588.05,-308.93 353.27,-523.9 214.96,-1234.824 -308.87,-1588.07" /></g></g><g
         id="g42"><g
           clip-path="url(#clipPath48)"
           id="g44"><path
             id="path60"
             style="fill:url(#radialGradient58);fill-opacity:1;fill-rule:nonzero;stroke:none"
             d="m 849.922,1660.05 c 0,368.91 299.058,667.98 667.978,667.98 368.89,0 667.95,-299.07 667.95,-667.98 0,-368.95 -299.06,-668.046 -667.95,-668.046 -368.92,0 -667.978,299.096 -667.978,668.046" /></g></g><g
         id="g62"><g
           clip-path="url(#clipPath68)"
           id="g64"><path
             id="path78"
             style="fill:url(#radialGradient76);fill-opacity:1;fill-rule:nonzero;stroke:none"
             d="m 1578.02,2175.1 c 314.75,0 572.62,-243.58 595.41,-552.53 h 89.3 c -22.97,358.2 -320.72,641.64 -684.71,641.64 -378.99,0 -686.196,-307.21 -686.196,-686.18 0,-241.28 124.546,-453.4 312.806,-575.76 l 34.82,83.86 c -156.14,107.73 -258.512,287.85 -258.512,491.9 0,329.76 267.312,597.07 597.082,597.07" /></g></g><path
         id="path80"
         style="fill:#231f20;fill-opacity:1;fill-rule:nonzero;stroke:none"
         d="m 2510.37,1418.55 h -130.16 l -27.98,-70.82 h 131.13 c 25.81,0 46.35,13.79 54.55,34.89 8.94,22.97 -0.7,35.93 -27.54,35.93 m 12.22,-29.96 v 0 c -5.83,-15.03 -20.51,-24.44 -39.23,-24.44 0,0 -75.2,0 -107.11,0 6.3,16.29 11.48,28.48 15.21,37.97 18.75,0 118.91,0 118.91,0 5.8,0 9.49,-0.75 11.63,-1.48 0.38,-0.16 0.85,-0.41 1.09,-0.55 1.34,-0.89 1.67,-2.64 1.61,-3.32 -0.12,-1.72 -0.62,-4.39 -2.11,-8.18" /><path
         id="path82"
         style="fill:#231f20;fill-opacity:1;fill-rule:nonzero;stroke:none"
         d="m 2093.45,1418.55 h -130.17 l -27.36,-69.46 h 130.49 c 25.81,0 46.34,12.43 54.55,33.53 8.93,22.97 -0.67,35.93 -27.51,35.93 m 12.19,-29.96 c -5.84,-15.03 -20.48,-23.09 -39.23,-23.09 0,0 -74.53,0 -106.47,0 6.3,16.29 10.87,27.13 14.56,36.62 18.75,0 118.95,0 118.95,0 5.77,0 9.46,-0.75 11.57,-1.48 0.41,-0.16 0.88,-0.41 1.11,-0.55 1.38,-0.89 1.67,-2.64 1.62,-3.32 -0.09,-1.72 -0.65,-4.39 -2.11,-8.18" /><path
         id="path84"
         style="fill:#231f20;fill-opacity:1;fill-rule:nonzero;stroke:none"
         d="m 1633.19,1298.39 h -138.03 l -29.52,-75.91 h 136.73 c 30.94,0 52.74,13.45 61.53,36.12 9.17,23.6 -1.94,39.79 -30.71,39.79 m 15.42,-33.81 c -8.68,-22.35 -32.7,-25.66 -46.24,-25.66 0,0 -80.08,0 -112.72,0 6.95,17.89 12.75,32.79 16.74,43.03 18.97,0 126.8,0 126.8,0 9.91,0 15.09,-2.46 16.53,-4.57 0.58,-0.88 0.91,-2.2 0.91,-3.79 0,-2.45 -0.71,-5.59 -2.02,-9.01" /><path
         id="path86"
         style="fill:#231f20;fill-opacity:1;fill-rule:nonzero;stroke:none"
         d="m 1676.76,1418.76 h -135.01 l -27.49,-70.58 h 138.3 c 18.05,0 39.37,15.45 47.4,36.09 7.85,20.21 -1.46,34.49 -23.2,34.49 m 7.91,-28.53 c -5.89,-15.1 -21.65,-25.65 -32.11,-25.65 0,0 -81.47,0 -114.27,0 6.36,16.35 10.98,28.22 14.67,37.72 18.88,0 123.8,0 123.8,0 6.18,0 8.06,-1.28 8.81,-2.39 0.27,-0.36 0.74,-1.13 0.74,-2.44 0,-1.64 -0.41,-4.04 -1.64,-7.24" /><path
         id="path88"
         style="fill:#231f20;fill-opacity:1;fill-rule:nonzero;stroke:none"
         d="m 1797.93,1384.73 c 5.01,12.8 7.5,25.32 7.5,37.23 0,11.63 -2.37,22.65 -7.15,32.76 -14.3,30.84 -47.84,49.3 -89.73,49.3 h -223.96 c -6.34,0 -12.66,-3.75 -15.27,-10.47 L 1338.9,1158.33 c 0.12,0.52 -3.91,-8.12 1.66,-15.76 4.4,-6.02 10.17,-7.03 13.48,-7.03 h 232.75 c 78.22,0 147.51,42.98 172.38,106.92 5.15,13.27 7.73,25.72 7.73,37.33 0,16.45 -5.3,31.14 -15.7,44.01 21.91,16.38 37.06,36.08 46.73,60.93 m -72.69,-58.48 c 24.26,-18.5 32.14,-43.07 18.64,-77.84 -21.65,-55.64 -82.91,-96.45 -157.09,-96.45 h -227.4 c -2.03,0 -3.68,1.64 -3.68,3.68 0,0.45 0.09,0.86 0.24,1.22 l 127.44,327.6 c 0.85,1.8 2.66,3.04 4.74,3.13 h 220.42 c 35.83,0 63.48,-15.28 74.88,-39.86 7.64,-16.23 7.35,-36.16 -0.82,-57.04 -10.79,-27.77 -28.59,-47.74 -57.37,-64.44" /><path
         id="path90"
         style="fill:#231f20;fill-opacity:1;fill-rule:nonzero;stroke:none"
         d="m 2632.19,1466.29 c -11.78,17.22 -36.68,37.73 -88.48,37.73 h -220.08 c -6.65,0 -12.77,-4.03 -15.29,-10.48 -0.67,-1.7 -100.16,-257.52 -130.55,-335.62 -4.65,-11.94 5.28,-22.38 15.3,-22.38 h 84.29 c 7.46,0 13.12,4.82 15.29,10.48 10.84,27.89 39.9,102.83 45.47,117.13 18.83,0 121.34,0 121.34,0 89.91,0 147.48,35.21 176.02,108.54 7.32,18.83 10.14,34.94 10.14,48.6 0,20.68 -6.45,35.72 -13.45,46 m -12.01,-88.65 c -27.04,-69.55 -80.34,-98.04 -160.7,-98.04 h -132.59 l -47.99,-123.71 -0.24,0.02 c -0.79,-2.05 -2.81,-3.51 -5.12,-3.51 v -0.44 h -75.09 c -2.02,0 -3.69,1.64 -3.69,3.68 0,0.45 0.08,0.88 0.26,1.29 l 127.38,327.46 c 0.82,1.82 2.64,3.11 4.75,3.2 h 216.56 c 72.07,0 101.93,-44.53 76.47,-109.95" /><path
         id="path92"
         style="fill:#231f20;fill-opacity:1;fill-rule:nonzero;stroke:none"
         d="m 2215.12,1466.48 c -11.75,17.12 -36.89,37.54 -89.94,37.54 h -218.5 c 0,0 -11.22,0 -15.29,-10.47 -1.91,-4.88 -100.37,-258 -130.55,-335.63 -4.13,-10.61 3.57,-22.38 15.29,-22.38 h 84.11 c 5.33,0 12.4,3.01 15.33,10.48 11.04,28.46 41.28,105.98 46.84,120.32 h 58.6 c 4.92,-15.38 29.32,-92.08 38.29,-120.36 1.67,-5.24 7.91,-10.44 15.29,-10.44 h 94.31 c 10.37,0 19.63,10.42 15.49,22.01 -11.89,33.46 -33.86,95.13 -40.51,113.75 25.37,6.85 46.84,15.13 64.22,28.91 22.06,17.46 38.52,40.85 50.39,71.52 6.65,17.1 9.93,33.5 9.93,48.56 0,17.51 -4.42,33.23 -13.3,46.19 m -11.93,-88.84 c -21.53,-55.61 -59.47,-82.63 -120.99,-94.54 l 45,-126.21 h -0.03 c 0.15,-0.39 0.21,-0.8 0.21,-1.25 0,-2.04 -1.65,-3.68 -3.67,-3.68 h -85.05 c -2.34,0 -4.34,1.45 -5.12,3.5 h -0.03 l -40.52,127.31 h -81.8 l -49.57,-127.31 v 0 c -0.82,-2.05 -2.81,-3.5 -5.16,-3.5 h -75 c -2.02,0 -3.66,1.64 -3.66,3.68 0,0.33 0.06,0.64 0.15,0.95 l 127.44,327.69 c 0.88,1.94 2.79,3.31 5.04,3.31 h 214.75 c 79.74,0 101.36,-49.65 78.01,-109.95" /><path
         id="path94"
         style="fill:#ffffff;fill-opacity:1;fill-rule:nonzero;stroke:none"
         d="m 1783.43,1447.73 c -11.4,24.58 -39.05,39.86 -74.88,39.86 h -220.42 c -2.08,-0.09 -3.89,-1.33 -4.74,-3.13 l -127.44,-327.6 c -0.15,-0.36 -0.24,-0.77 -0.24,-1.22 0,-2.04 1.65,-3.68 3.68,-3.68 h 227.4 c 74.18,0 135.44,40.81 157.09,96.45 13.5,34.77 5.62,59.34 -18.64,77.84 28.78,16.7 46.58,36.67 57.37,64.44 8.17,20.88 8.46,40.81 0.82,57.04 M 1663.9,1258.6 c -8.79,-22.67 -30.59,-36.12 -61.53,-36.12 h -136.73 l 29.52,75.91 h 138.03 c 28.77,0 39.88,-16.19 30.71,-39.79 m 36.06,125.67 c -8.03,-20.64 -29.35,-36.09 -47.4,-36.09 h -138.3 l 27.49,70.58 h 135.01 c 21.74,0 31.05,-14.28 23.2,-34.49" /><path
         id="path96"
         style="fill:#ffffff;fill-opacity:1;fill-rule:evenodd;stroke:none"
         d="m 2543.71,1487.59 h -216.56 c -2.11,-0.09 -3.93,-1.38 -4.75,-3.2 l -127.38,-327.46 c -0.18,-0.41 -0.26,-0.84 -0.26,-1.29 0,-2.04 1.67,-3.68 3.69,-3.68 h 75.09 v 0.44 c 2.31,0 4.33,1.46 5.12,3.51 l 0.24,-0.02 47.99,123.71 h 132.59 c 80.36,0 133.66,28.49 160.7,98.04 25.46,65.42 -4.4,109.95 -76.47,109.95 m -5.8,-104.97 c -8.2,-21.1 -28.74,-34.89 -54.55,-34.89 h -131.13 l 27.98,70.82 h 130.16 c 26.84,0 36.48,-12.96 27.54,-35.93" /><path
         id="path98"
         style="fill:#ffffff;fill-opacity:1;fill-rule:evenodd;stroke:none"
         d="m 2125.18,1487.59 h -214.75 c -2.25,0 -4.16,-1.37 -5.04,-3.31 l -127.44,-327.69 c -0.09,-0.31 -0.15,-0.62 -0.15,-0.95 0,-2.04 1.64,-3.68 3.66,-3.68 h 75 c 2.35,0 4.34,1.45 5.16,3.5 v 0 l 49.57,127.31 h 81.8 l 40.52,-127.31 h 0.03 c 0.78,-2.05 2.78,-3.5 5.12,-3.5 h 85.05 c 2.02,0 3.67,1.64 3.67,3.68 0,0.45 -0.06,0.86 -0.21,1.25 h 0.03 l -45,126.21 c 61.52,11.91 99.46,38.93 120.99,94.54 23.35,60.3 1.73,109.95 -78.01,109.95 m -4.22,-104.97 c -8.21,-21.1 -28.74,-33.53 -54.55,-33.53 h -130.49 l 27.36,69.46 h 130.17 c 26.84,0 36.44,-12.96 27.51,-35.93" /><g
         id="g100"><g
           clip-path="url(#clipPath106)"
           id="g102"><path
             id="path116"
             style="fill:url(#radialGradient114);fill-opacity:1;fill-rule:nonzero;stroke:none"
             d="m 2630.23,1768.84 c -145.99,-17.17 -289.72,-14.18 -310.64,50.16 -20.89,64.31 93.63,151.23 221.84,223.14 0.03,0.02 0.09,0.06 0.11,0.07 -56.01,116.07 -132.36,220.52 -224.47,308.62 -107.99,-99.68 -226,-181.72 -280.72,-141.97 -54.73,39.77 -13.16,177.44 48.31,310.98 -110.71,59.67 -233.14,100.45 -362.96,117.89 -28.77,-144.14 -76.02,-279.94 -143.68,-279.94 -67.65,0 -114.91,135.81 -143.7,279.98 h -0.01 c -136.26,-18.31 -264.34,-62.31 -379.33,-126.9 0.02,-0.02 0.03,-0.04 0.05,-0.08 63.76,-132.43 107.74,-269.31 53.71,-310.03 -54.02,-40.69 -173.467,39.27 -283.181,137.05 -94.868,-93.93 -172.192,-205.59 -226.731,-329.48 0.031,-0.04 0.078,-0.05 0.117,-0.06 130.633,-67.42 248.164,-150.28 229.512,-215.31 -18.641,-65.04 -162.246,-73.03 -308.762,-60.96 -7.234,-50.29 -11.07,-101.7 -11.07,-153.97 0,-401.1 220.777,-750.596 547.445,-933.577 l 148.56,357.817 c -188.26,122.36 -312.833,334.47 -312.833,575.76 0,378.97 307.223,686.18 686.223,686.18 363.96,0 661.74,-283.44 684.68,-641.64 h 383.73 c -2.05,49.7 -7.62,98.53 -16.2,146.27" /></g></g><g
         id="g118"><g
           clip-path="url(#clipPath124)"
           id="g120"><path
             id="path134"
             style="fill:url(#radialGradient132);fill-opacity:1;fill-rule:nonzero;stroke:none"
             d="m 1578.02,2357.79 c 67.66,0 114.91,135.8 143.68,279.94 -110.27,-279.94 -177.11,-279.94 -287.41,0.09 0,-0.02 0.02,-0.03 0.02,-0.05 h 0.01 c 28.79,-144.17 76.05,-279.98 143.7,-279.98" /></g></g><g
         id="g136"><g
           clip-path="url(#clipPath142)"
           id="g138"><path
             id="path152"
             style="fill:url(#radialGradient150);fill-opacity:1;fill-rule:nonzero;stroke:none"
             d="m 1108.74,2200.76 c 54.03,40.72 10.05,177.6 -53.71,310.03 80.39,-289.92 27.13,-330.24 -229.483,-172.99 0.039,-0.03 -0.051,0.04 0,0 0,0.01 0.012,0.01 0.012,0.01 109.714,-97.78 229.161,-177.74 283.181,-137.05" /></g></g><g
         id="g154"><g
           clip-path="url(#clipPath160)"
           id="g156"><path
             id="path170"
             style="fill:url(#radialGradient168);fill-opacity:1;fill-rule:nonzero;stroke:none"
             d="m 828.457,1792.96 c 18.652,65.03 -98.879,147.89 -229.512,215.31 238.703,-183.16 220.301,-247.43 -79.25,-276.27 146.516,-12.07 290.121,-4.08 308.762,60.96" /></g></g><g
         id="g172"><g
           clip-path="url(#clipPath178)"
           id="g174"><path
             id="path188"
             style="fill:url(#radialGradient186);fill-opacity:1;fill-rule:nonzero;stroke:none"
             d="m 2036.35,2208.86 c 54.72,-39.75 172.73,42.29 280.72,141.97 l 0.03,-0.01 c 0.03,0.03 0.03,0.06 0.06,0.07 -253.77,-161.66 -307.85,-122.38 -232.5,168.95 -61.47,-133.54 -103.04,-271.21 -48.31,-310.98" /></g></g><g
         id="g190"><g
           clip-path="url(#clipPath196)"
           id="g192"><path
             id="path206"
             style="fill:url(#radialGradient204);fill-opacity:1;fill-rule:nonzero;stroke:none"
             d="m 2319.59,1819 c 20.92,-64.34 164.65,-67.33 310.64,-50.16 -300.27,18.37 -320.95,81.93 -88.8,273.3 C 2413.22,1970.23 2298.7,1883.31 2319.59,1819" /></g></g></g></g></svg>